<mxfile host="app.diagrams.net" modified="2020-08-09T13:39:12.874Z" agent="5.0 (Windows NT 10.0; Win64; x64) AppleWebKit/537.36 (KHTML, like Gecko) Chrome/83.0.4103.97 Safari/537.36" etag="UapvpGxlSIUeHruvZkSZ" version="13.3.5" type="github">
  <diagram id="M1a95tpMGcjsCZDzniAK" name="Page-1">
    <mxGraphModel dx="1022" dy="438" grid="1" gridSize="10" guides="1" tooltips="1" connect="1" arrows="1" fold="1" page="1" pageScale="1" pageWidth="827" pageHeight="1169" math="0" shadow="0">
      <root>
        <mxCell id="0" />
        <mxCell id="1" parent="0" />
        <mxCell id="HYH05OHCe67fDHXb1lPY-1" value="Super block" style="rounded=0;whiteSpace=wrap;html=1;" vertex="1" parent="1">
          <mxGeometry x="40" y="360" width="70" height="60" as="geometry" />
        </mxCell>
        <mxCell id="HYH05OHCe67fDHXb1lPY-5" value="" style="rounded=0;whiteSpace=wrap;html=1;" vertex="1" parent="1">
          <mxGeometry x="120" y="240" width="40" height="60" as="geometry" />
        </mxCell>
        <mxCell id="HYH05OHCe67fDHXb1lPY-6" value="" style="rounded=0;whiteSpace=wrap;html=1;" vertex="1" parent="1">
          <mxGeometry x="160" y="240" width="40" height="60" as="geometry" />
        </mxCell>
        <mxCell id="HYH05OHCe67fDHXb1lPY-7" value="cluster group 0" style="rounded=0;whiteSpace=wrap;html=1;" vertex="1" parent="1">
          <mxGeometry x="200" y="240" width="120" height="60" as="geometry" />
        </mxCell>
        <mxCell id="HYH05OHCe67fDHXb1lPY-8" value="Block&amp;nbsp; #2" style="text;html=1;strokeColor=none;fillColor=none;align=center;verticalAlign=middle;whiteSpace=wrap;rounded=0;" vertex="1" parent="1">
          <mxGeometry x="190" y="210" width="60" height="20" as="geometry" />
        </mxCell>
        <mxCell id="HYH05OHCe67fDHXb1lPY-9" value="cluster group 1" style="rounded=0;whiteSpace=wrap;html=1;" vertex="1" parent="1">
          <mxGeometry x="320" y="240" width="120" height="60" as="geometry" />
        </mxCell>
        <mxCell id="HYH05OHCe67fDHXb1lPY-10" value="cluster group N" style="rounded=0;whiteSpace=wrap;html=1;" vertex="1" parent="1">
          <mxGeometry x="520" y="240" width="120" height="60" as="geometry" />
        </mxCell>
        <mxCell id="HYH05OHCe67fDHXb1lPY-11" value="" style="html=1;shadow=0;dashed=0;align=center;verticalAlign=middle;shape=mxgraph.arrows2.stripedArrow;dy=0.6;dx=40;notch=25;" vertex="1" parent="1">
          <mxGeometry x="440" y="240" width="80" height="60" as="geometry" />
        </mxCell>
        <mxCell id="HYH05OHCe67fDHXb1lPY-12" value="System files" style="rounded=0;whiteSpace=wrap;html=1;" vertex="1" parent="1">
          <mxGeometry x="145" y="360" width="70" height="60" as="geometry" />
        </mxCell>
      </root>
    </mxGraphModel>
  </diagram>
</mxfile>
